<svg xmlns="http://www.w3.org/2000/svg" xmlns:xlink="http://www.w3.org/1999/xlink" viewBox="0 0 135.61 42.66"><defs><style>.cls-1{fill:none;}.cls-2{clip-path:url(#clip-path);}.cls-3{fill:url(#무제_그라디언트_2);}.cls-4{clip-path:url(#clip-path-2);}.cls-5{fill:url(#무제_그라디언트_2-2);}.cls-6{clip-path:url(#clip-path-3);}.cls-7{fill:#fff;}</style><clipPath id="clip-path"><path class="cls-1" d="M19.86,12.93a7.61,7.61,0,0,0-5.74,7A7.27,7.27,0,0,0,15.68,25a7.48,7.48,0,0,0,6.79,3,7.57,7.57,0,0,0,5.64-3.28,1.84,1.84,0,0,0-2.92-2.23c-.13.15-.27.34-.4.5a4,4,0,0,1-6.94-3.46,4,4,0,0,1,5.18-3,4.23,4.23,0,0,1,2.11,1.61,1.78,1.78,0,0,0,2.34.51A1.84,1.84,0,0,0,28,15.81a7.81,7.81,0,0,0-6.45-3.17c-.39.08-1.05.12-1.68.29"/></clipPath><linearGradient id="무제_그라디언트_2" y1="42.66" x2="1" y2="42.66" gradientTransform="matrix(14.34, 0, 0, -14.34, 14.1, 632.31)" gradientUnits="userSpaceOnUse"><stop offset="0" stop-color="#00a5ff"/><stop offset="0.3" stop-color="#1496da"/><stop offset="0.88" stop-color="#2380d9"/><stop offset="1" stop-color="#1e80d9"/></linearGradient><clipPath id="clip-path-2"><path class="cls-1" d="M20.89,0a40.24,40.24,0,0,0-4.44.73A20.18,20.18,0,0,0,1.26,19.13,19.1,19.1,0,0,0,5.09,32.19L0,42.66l10.6-5.15A19.54,19.54,0,0,0,23.33,40.6a19.9,19.9,0,0,0,14.94-8.66,4.87,4.87,0,0,0-1-6.6,4.93,4.93,0,0,0-6.73.71c-.35.42-.67.88-1,1.3a10.6,10.6,0,1,1-4.69-17.06,11.24,11.24,0,0,1,5.61,4.23,4.72,4.72,0,0,0,6.19,1.35c2.74-1.56,3.35-4.79,1.32-7.48C33.86,3,28.35.23,20.89,0Z"/></clipPath><linearGradient id="무제_그라디언트_2-2" y1="42.66" y2="42.66" gradientTransform="matrix(39.14, 0, 0, -39.14, 0, 1691.3)" xlink:href="#무제_그라디언트_2"/><clipPath id="clip-path-3"><rect class="cls-1" width="135.62" height="42.66"/></clipPath></defs><title>logo_w</title><g id="레이어_2" data-name="레이어 2"><g id="레이어_1-2" data-name="레이어 1"><g class="cls-2"><rect class="cls-3" x="13.98" y="12.64" width="14.77" height="15.57"/></g><g class="cls-4"><rect class="cls-5" width="39.97" height="42.66"/></g><g class="cls-6"><path class="cls-7" d="M48.16,22.75V6.52H63.65a25.07,25.07,0,0,1,.56,3c.14,1.05.23,2.12.28,3.17s0,2.1,0,3.11a20.88,20.88,0,0,1-.34,2.79,4.54,4.54,0,0,1-1.91,3.3,7.66,7.66,0,0,1-4,.88Zm8.3,2.79L56,30.59a7.75,7.75,0,0,0,0,1.14,1.33,1.33,0,0,0,.21.68.9.9,0,0,0,.55.34,3.67,3.67,0,0,0,1,.11l17.43,0-.76,3.83H57a13.72,13.72,0,0,1-2.79-.25,3.76,3.76,0,0,1-1.84-.91,3.4,3.4,0,0,1-.95-1.79,10.22,10.22,0,0,1-.13-2.87l.4-5.37h4.73m3.35-7.94A15.12,15.12,0,0,0,60,15.84c0-.64.05-1.28.05-1.92S60,12.65,60,12a17.14,17.14,0,0,0-.21-1.75H52.62V19h5.16a3,3,0,0,0,1.36-.26,1.4,1.4,0,0,0,.67-1.16m10-12.19h4.46V28.5H69.81Z"/><path class="cls-7" d="M77.29,33V29H87.4V21.62H92V29h14.33L105.52,33Zm19.42-8.31a15.76,15.76,0,0,0,1.08-2.58,22.68,22.68,0,0,0,.72-3H78.9v-4H99c0-1,.06-1.89,0-2.73a15.49,15.49,0,0,0-.21-2.16H79.49v-4h23.63a23.8,23.8,0,0,1,.61,4.88,38.89,38.89,0,0,1-.21,5.49,35.78,35.78,0,0,1-1,5.26A16.67,16.67,0,0,1,100.93,26Z"/><path class="cls-7" d="M114,17.72a33.7,33.7,0,0,0,4.57.15,42.15,42.15,0,0,0,4.81-.41,37.48,37.48,0,0,0,4.39-.87,15.21,15.21,0,0,0,3.38-1.27V5.86h4.49V18a12.67,12.67,0,0,1-.68,4.36,5.74,5.74,0,0,1-2.34,3,7.8,7.8,0,0,1,2.14,2.53,6.71,6.71,0,0,1,.75,3.12,6.44,6.44,0,0,1-.7,2.92,7.42,7.42,0,0,1-2,2.41,9.81,9.81,0,0,1-3.1,1.64,12.88,12.88,0,0,1-4.1.61,13.61,13.61,0,0,1-4.14-.59,9.53,9.53,0,0,1-3.09-1.62,7,7,0,0,1-1.95-2.41,6.5,6.5,0,0,1-.68-3,6.77,6.77,0,0,1,.68-3,6.89,6.89,0,0,1,1.95-2.46,9.42,9.42,0,0,1,3.09-1.67,13,13,0,0,1,4.14-.6,11.33,11.33,0,0,1,1.17.05c.38,0,.75.07,1.09.12a5.64,5.64,0,0,0,1.59-.55,3.11,3.11,0,0,0,1-.86,3.23,3.23,0,0,0,.49-1.17,8.52,8.52,0,0,0,.17-1.54,14,14,0,0,1-3.54,1.23,45.29,45.29,0,0,1-5.39.94,58.54,58.54,0,0,1-6.35.36,37.64,37.64,0,0,1-6.32-.47V6.55h16.34v4H114v7.22Zm6.45,13.17a3.38,3.38,0,0,0,1.45,2.86,6.11,6.11,0,0,0,3.77,1.08,6.23,6.23,0,0,0,3.82-1.08,3.52,3.52,0,0,0,0-5.69A6.23,6.23,0,0,0,125.64,27a6.11,6.11,0,0,0-3.77,1.08,3.37,3.37,0,0,0-1.45,2.83"/></g></g></g></svg>